<?xml version="1.0" encoding="UTF-8" standalone="no" ?>
<!DOCTYPE svg PUBLIC "-//W3C//DTD SVG 1.1//EN" "http://www.w3.org/Graphics/SVG/1.1/DTD/svg11.dtd">
<svg xmlns="http://www.w3.org/2000/svg" xmlns:xlink="http://www.w3.org/1999/xlink" version="1.1" width="400" height="400" viewBox="0 0 400 400" xml:space="preserve">
<desc>Created with Fabric.js 3.6.2</desc>
<defs>
</defs>
<g transform="matrix(0.78 0 0 0.78 200 200)"  >
<rect style="stroke: none; stroke-width: 1; stroke-dasharray: none; stroke-linecap: butt; stroke-dashoffset: 0; stroke-linejoin: miter; stroke-miterlimit: 4; fill: none; fill-rule: nonzero; opacity: 1;"  x="-128" y="-128" rx="0" ry="0" width="256" height="256" />
</g>
<g transform="matrix(0.78 0 0 0.78 206.25 200)"  >
<polygon style="stroke: rgb(0,0,0); stroke-width: 16; stroke-dasharray: none; stroke-linecap: round; stroke-dashoffset: 0; stroke-linejoin: round; stroke-miterlimit: 4; fill: none; fill-rule: nonzero; opacity: 1;"  points="24,0 -24,-32 -24,32 24,0 " />
</g>
<g transform="matrix(0.78 0 0 0.78 200 200)"  >
<path style="stroke: rgb(0,0,0); stroke-width: 16; stroke-dasharray: none; stroke-linecap: round; stroke-dashoffset: 0; stroke-linejoin: round; stroke-miterlimit: 4; fill: none; fill-rule: nonzero; opacity: 1;"  transform=" translate(-128, -128)" d="M 24 128 c 0 29.8 3.1 47.2 5.4 56.2 A 16.1 16.1 0 0 0 39 195.1 c 33.5 12.8 89 12.5 89 12.5 s 55.5 0.3 89 -12.5 a 16.1 16.1 0 0 0 9.6 -10.9 c 2.3 -9 5.4 -26.4 5.4 -56.2 s -3.1 -47.2 -5.4 -56.2 A 16.1 16.1 0 0 0 217 60.9 c -33.5 -12.8 -89 -12.5 -89 -12.5 s -55.5 -0.3 -89 12.5 a 16.1 16.1 0 0 0 -9.6 10.9 C 27.1 80.8 24 98.2 24 128 Z" stroke-linecap="round" />
</g>
</svg>